<svg width="18" height="18" viewBox="0 0 18 18" fill="none" xmlns="http://www.w3.org/2000/svg">
<path d="M17.7801 16.7196L12.6614 11.6009C13.6529 10.3762 14.2498 8.81991 14.2498 7.12494C14.2498 3.19648 11.0534 0 7.12491 0C3.19645 0 0 3.19645 0 7.12491C0 11.0534 3.19648 14.2498 7.12494 14.2498C8.81991 14.2498 10.3762 13.6529 11.6009 12.6614L16.7196 17.7801C16.8658 17.9263 17.0578 17.9998 17.2498 17.9998C17.4419 17.9998 17.6339 17.9263 17.7801 17.7801C18.0733 17.4868 18.0733 17.0128 17.7801 16.7196ZM7.12494 12.7499C4.02296 12.7499 1.5 10.2269 1.5 7.12491C1.5 4.02293 4.02296 1.49996 7.12494 1.49996C10.2269 1.49996 12.7499 4.02293 12.7499 7.12491C12.7499 10.2269 10.2269 12.7499 7.12494 12.7499Z" fill="black"/>
</svg>
