<svg width="14" height="10" viewBox="0 0 14 10" fill="none" xmlns="http://www.w3.org/2000/svg">
<path d="M1.72077 4.57657C1.33794 4.1785 0.704891 4.16615 0.306822 4.54898C-0.0912461 4.93181 -0.103598 5.56486 0.279233 5.96292L1.72077 4.57657ZM4.56107 8.97255L3.84031 9.66573C4.02717 9.86003 4.28455 9.97065 4.55411 9.97253C4.82367 9.97441 5.08258 9.86737 5.27212 9.6757L4.56107 8.97255ZM13.1561 1.70315C13.5444 1.31045 13.5409 0.677291 13.1482 0.288954C12.7555 -0.0993825 12.1223 -0.0958453 11.734 0.296854L13.1561 1.70315ZM0.279233 5.96292L3.84031 9.66573L5.28184 8.27938L1.72077 4.57657L0.279233 5.96292ZM5.27212 9.6757L13.1561 1.70315L11.734 0.296854L3.85003 8.26941L5.27212 9.6757Z" fill="#37B159"/>
</svg>
