<svg width="18" height="13" viewBox="0 0 18 13" fill="none" xmlns="http://www.w3.org/2000/svg">
<path d="M1.72077 4.57657C1.33794 4.1785 0.704891 4.16615 0.306822 4.54898C-0.0912461 4.93181 -0.103598 5.56485 0.279233 5.96292L1.72077 4.57657ZM4.56107 8.97255L3.84031 9.66573C4.02717 9.86003 4.28455 9.97065 4.55411 9.97253C4.82367 9.97441 5.08258 9.86737 5.27212 9.6757L4.56107 8.97255ZM13.1561 1.70315C13.5444 1.31045 13.5409 0.677291 13.1482 0.288954C12.7555 -0.0993825 12.1223 -0.0958454 11.734 0.296855L13.1561 1.70315ZM0.279233 5.96292L3.84031 9.66573L5.28184 8.27938L1.72077 4.57657L0.279233 5.96292ZM5.27212 9.6757L13.1561 1.70315L11.734 0.296855L3.85003 8.26941L5.27212 9.6757Z" fill="#37B159"/>
<path d="M9.11589 11.3115L8.37259 11.9805C8.55728 12.1857 8.81859 12.3054 9.0946 12.3113C9.37062 12.3171 9.63678 12.2086 9.83004 12.0115L9.11589 11.3115ZM17.714 3.96806C18.1006 3.57365 18.0943 2.94051 17.6999 2.55392C17.3054 2.16732 16.6723 2.17366 16.2857 2.56807L17.714 3.96806ZM8.90247 9.57952C8.53301 9.16901 7.90072 9.13573 7.49021 9.50519C7.0797 9.87465 7.04643 10.5069 7.41589 10.9174L8.90247 9.57952ZM9.83004 12.0115L17.714 3.96806L16.2857 2.56807L8.40174 10.6115L9.83004 12.0115ZM7.41589 10.9174L8.37259 11.9805L9.85918 10.6425L8.90247 9.57952L7.41589 10.9174Z" fill="#37B159"/>
</svg>
