<svg width="24" height="24" viewBox="0 0 24 24" fill="none" xmlns="http://www.w3.org/2000/svg">
<path d="M12.0004 0C5.37167 0 0 5.37167 0 12.0004C0 18.6267 5.37167 23.9968 12.0004 23.9968C18.6275 23.9968 24 18.6259 24 12.0004C24.0008 5.37167 18.6275 0 12.0004 0ZM12.0004 21.9946C6.48018 21.9946 2.00459 17.5214 2.00459 12.0004C2.00459 6.48178 6.48018 2.003 12.0004 2.003C17.5198 2.003 21.9946 6.48098 21.9946 12.0004C21.9954 17.5214 17.5198 21.9946 12.0004 21.9946Z" fill="black"/>
<line x1="9" y1="9" x2="9" y2="15" stroke="black" stroke-width="2" stroke-linecap="round"/>
<line x1="14" y1="9" x2="14" y2="15" stroke="black" stroke-width="2" stroke-linecap="round"/>
</svg>
