<svg width="24" height="24" viewBox="0 0 24 24" fill="none" xmlns="http://www.w3.org/2000/svg">
<path d="M15.9584 11.5306L10.9749 7.90799C10.792 7.77542 10.5492 7.75545 10.3488 7.85848C10.1467 7.9607 10.0205 8.16835 10.0205 8.39277V15.6357C10.0205 15.8625 10.1467 16.0693 10.3488 16.1715C10.4342 16.2147 10.5276 16.2362 10.6219 16.2362C10.7449 16.2362 10.8695 16.1971 10.9749 16.1196L15.9584 12.5002C16.1157 12.3844 16.2076 12.2055 16.2076 12.0154C16.2084 11.8221 16.1141 11.644 15.9584 11.5306Z" fill="black"/>
<path d="M12.0004 0.00195312C5.37167 0.00195312 0 5.37362 0 12.0024C0 18.6287 5.37167 23.9988 12.0004 23.9988C18.6275 23.9988 24 18.6279 24 12.0024C24.0008 5.37362 18.6275 0.00195312 12.0004 0.00195312ZM12.0004 21.9966C6.48018 21.9966 2.00459 17.5234 2.00459 12.0024C2.00459 6.48373 6.48018 2.00495 12.0004 2.00495C17.5198 2.00495 21.9946 6.48294 21.9946 12.0024C21.9954 17.5234 17.5198 21.9966 12.0004 21.9966Z" fill="black"/>
</svg>
