<svg width="19" height="19" viewBox="0 0 19 19" fill="none" xmlns="http://www.w3.org/2000/svg">
<g opacity="0.3">
<path d="M17.7693 1.22968C16.1338 -0.409892 13.474 -0.409892 11.8385 1.22968L0.964742 12.0994C0.879727 12.1844 0.827099 12.2937 0.810906 12.4111L0.0052907 18.3783C-0.0189992 18.5484 0.0417256 18.7184 0.159127 18.8358C0.260335 18.937 0.402026 18.9977 0.543717 18.9977C0.568007 18.9977 0.592297 18.9977 0.616587 18.9937L4.21149 18.5079C4.51107 18.4674 4.72158 18.1921 4.6811 17.8925C4.64061 17.593 4.36533 17.3824 4.06575 17.4229L1.18335 17.8116L1.74607 13.6499L6.12635 18.0302C6.22756 18.1314 6.36925 18.1921 6.51094 18.1921C6.65263 18.1921 6.79432 18.1354 6.89553 18.0302L17.7693 7.16046C18.5628 6.36699 19 5.31442 19 4.19304C19 3.07166 18.5628 2.0191 17.7693 1.22968ZM12.049 2.56562L13.8748 4.39141L3.9524 14.3138L2.12661 12.488L12.049 2.56562ZM6.51499 16.8724L4.72968 15.0871L14.6521 5.16464L16.4374 6.94994L6.51499 16.8724ZM17.1985 6.16862L12.8304 1.80049C13.385 1.34303 14.0772 1.09203 14.8059 1.09203C15.6358 1.09203 16.4131 1.4159 17.0001 1.99885C17.5871 2.58181 17.907 3.36314 17.907 4.19304C17.907 4.92579 17.656 5.614 17.1985 6.16862Z" fill="black"/>
</g>
</svg>
