<svg width="18" height="18" viewBox="0 0 18 18" fill="none" xmlns="http://www.w3.org/2000/svg">
<path d="M9 0C13.9626 0 18 4.03738 18 9C18 13.9626 13.9626 18 9 18C4.03738 18 0 13.9626 0 9C0 4.03738 4.03738 0 9 0ZM9 16.9453C13.3811 16.9453 16.9453 13.3811 16.9453 9C16.9453 4.61893 13.3811 1.05469 9 1.05469C4.61893 1.05469 1.05469 4.61893 1.05469 9C1.05469 13.3811 4.61893 16.9453 9 16.9453Z" fill="black"/>
<path d="M4.81882 10.2656H13.1812C13.4724 10.2656 13.7085 10.5017 13.7085 10.793V10.8657C13.7085 13.462 11.5963 15.5742 8.99999 15.5742C6.40367 15.5742 4.29144 13.462 4.29144 10.8657V10.793C4.29148 10.5017 4.52759 10.2656 4.81882 10.2656ZM10.4894 14.2019C10.1977 13.8871 9.6296 13.6758 9.01852 13.6758C8.39738 13.6758 7.82303 13.8942 7.53651 14.2135C7.98482 14.4102 8.47989 14.5195 8.99999 14.5195C9.53018 14.5195 10.0343 14.4059 10.4894 14.2019ZM6.63823 13.6514C7.10862 13.0267 8.01059 12.6211 9.01852 12.6211C10.0141 12.6211 10.9097 13.0146 11.3849 13.6314C12.0532 13.0544 12.511 12.2399 12.6257 11.3203H5.37429C5.49027 12.2505 5.95732 13.0733 6.63823 13.6514Z" fill="black"/>
<path d="M12.9741 7.62479L11.9795 6.27205L11.9786 6.27096L11.9775 6.2725L10.9751 7.62623C10.8018 7.86027 10.4715 7.90952 10.2375 7.73623C10.0034 7.56291 9.95418 7.23266 10.1275 6.99862L11.1299 5.64493C11.3316 5.37247 11.6409 5.21627 11.9787 5.21627H11.9799C12.3185 5.21666 12.6281 5.3738 12.8293 5.64736L13.8239 7.0001C13.9964 7.23473 13.9461 7.56481 13.7114 7.73736C13.6174 7.80655 13.5079 7.83987 13.3995 7.83987C13.2373 7.83977 13.0774 7.76534 12.9741 7.62479Z" fill="black"/>
<path d="M5.17963 5.64497C5.38139 5.37251 5.6907 5.21631 6.02848 5.21631H6.02967C6.3683 5.2167 6.67788 5.37384 6.87901 5.64739L7.87365 7.00014C8.04616 7.23477 7.99582 7.56485 7.76119 7.7374C7.66711 7.80658 7.5577 7.83991 7.44921 7.83991C7.28718 7.83991 7.12725 7.76549 7.02393 7.62493L6.02929 6.27219L6.02848 6.2711L6.02732 6.27265L5.02494 7.62637C4.85162 7.86041 4.5214 7.90966 4.28733 7.73638C4.05326 7.56306 4.004 7.2328 4.17733 6.99876L5.17963 5.64497Z" fill="black"/>
</svg>
