<svg width="9" height="18" viewBox="0 0 9 18" fill="none" xmlns="http://www.w3.org/2000/svg">
<path d="M7.5909 4.09092V13.5C7.5909 15.3082 6.2077 16.7727 4.5 16.7727C2.79229 16.7727 1.40906 15.3082 1.40906 13.5V3.27272C1.40906 2.14363 2.2745 1.22727 3.34087 1.22727C4.40723 1.22727 5.27271 2.14363 5.27271 3.27272V11.8636C5.27271 12.3136 4.92886 12.6818 4.5 12.6818C4.07113 12.6818 3.72728 12.3136 3.72728 11.8636V4.09092H2.56819V11.8637C2.56819 12.9928 3.43363 13.9091 4.5 13.9091C5.56636 13.9091 6.4318 12.9927 6.4318 11.8636V3.27272C6.4318 1.46456 5.04861 0 3.3409 0C1.6332 0 0.25 1.46456 0.25 3.27272V13.5C0.25 15.9873 2.15479 18 4.5 18C6.8452 18 8.74999 15.9873 8.74999 13.5V4.09092H7.5909Z" fill="black"/>
</svg>
