<svg width="13" height="12" viewBox="0 0 13 12" fill="none" xmlns="http://www.w3.org/2000/svg">
<path d="M12.815 5.5993C12.8119 5.45375 12.7223 5.32403 12.5874 5.26957L0.910314 0.553827C0.776705 0.49987 0.623866 0.52984 0.520482 0.630246C0.417133 0.73065 0.382779 0.882581 0.432844 1.01769L2.21362 5.82276L0.636955 10.6986C0.593948 10.8316 0.630968 10.977 0.73129 11.0732C0.734407 11.0762 0.737592 11.0792 0.740845 11.082C0.848316 11.178 1.00232 11.2015 1.13351 11.142L12.6015 5.93834C12.7341 5.87817 12.818 5.74484 12.815 5.5993ZM1.40146 1.53705L10.6711 5.28053L2.8499 5.44539L1.40146 1.53705ZM1.5828 10.1389L2.86525 6.17296L10.6865 6.00812L1.5828 10.1389Z" fill="white"/>
</svg>
