<svg width="82" height="83" viewBox="0 0 82 83" fill="none" xmlns="http://www.w3.org/2000/svg">
<path d="M40.9995 81.6168H75.1662C78.1854 81.6168 80.6329 79.1394 80.6329 76.0835V62.7647C80.6332 61.5344 80.2278 60.3392 79.4808 59.3686L63.1395 38.1027C62.1042 36.7555 60.5126 35.9673 58.8263 35.9668H23.1727C21.4865 35.9673 19.8949 36.7555 18.8595 38.1027L2.51831 59.3686C1.77134 60.3392 1.36587 61.5344 1.36621 62.7647V76.0835C1.36621 79.1394 3.81372 81.6168 6.83288 81.6168H40.9995Z" fill="#E8EDFC"/>
<path d="M79.481 59.3686L63.1398 38.1027C62.1044 36.7555 60.5128 35.9673 58.8266 35.9668H54.7266C56.4128 35.9673 58.0044 36.7555 59.0398 38.1027L75.381 59.3686C76.1273 60.3396 76.5327 61.5345 76.5331 62.7647V76.0835C76.5331 79.1394 74.0856 81.6168 71.0664 81.6168H75.1664C78.1856 81.6168 80.6331 79.1394 80.6331 76.0835V62.7647C80.6327 61.5345 80.2273 60.3396 79.481 59.3686Z" fill="#CAD9FC"/>
<path d="M75.1663 63.6333L58.7663 41.5H23.233L6.83301 63.6333H24.2771C25.3127 63.6334 26.2592 64.2257 26.7221 65.1633L29.3106 70.4034C29.7734 71.341 30.72 71.9333 31.7555 71.9333H50.2438C51.2793 71.9333 52.2259 71.341 52.6888 70.4034L55.2772 65.1633C55.7401 64.2257 56.6867 63.6334 57.7222 63.6333H75.1663Z" fill="#A4C2F7"/>
<path d="M62.8671 5.53324V24.8999C62.8672 26.0004 62.4345 27.0556 61.6645 27.8326L61.4868 27.6666L47.3828 15.0506L61.4868 2.43457C62.3673 3.21735 62.8705 4.34709 62.8671 5.53324Z" fill="#E8EDFC"/>
<path d="M61.6639 27.8328C60.8964 28.6122 59.8538 29.0502 58.7666 29.0501H23.2333C22.1529 29.0492 21.1166 28.6167 20.3496 27.8466L20.5136 27.6668L34.6176 15.0508L38.2803 18.3293C39.8358 19.7127 42.1641 19.7127 43.7196 18.3293L47.3823 15.0508L61.4863 27.6668L61.6639 27.8328Z" fill="#A4C2F7"/>
<path d="M61.486 27.6668L47.382 15.0508L45.332 16.8851L57.386 27.6668L57.5637 27.8328C56.7961 28.6122 55.7536 29.0502 54.6664 29.0501H58.7664C59.8536 29.0502 60.8961 28.6122 61.6637 27.8328L61.486 27.6668Z" fill="#7FACFA"/>
<path d="M34.6172 15.0506L20.5132 27.6666L20.3492 27.8464C19.5696 27.0692 19.1313 26.0075 19.1328 24.8999V5.53324C19.1295 4.34709 19.6327 3.21735 20.5132 2.43457L34.6172 15.0506Z" fill="#E8EDFC"/>
<path d="M61.4864 2.43512L47.3823 15.0511L43.7197 18.3296C42.1641 19.713 39.8359 19.713 38.2803 18.3296L34.6177 15.0511L20.5137 2.43512C21.2613 1.75748 22.2298 1.3831 23.2333 1.38379H58.7667C59.7702 1.3831 60.7387 1.75748 61.4864 2.43512Z" fill="#E8EDFC"/>
<path d="M58.7669 1.38379H54.6669C55.6704 1.3831 56.6389 1.75748 57.3865 2.43512L43.2825 15.0511L39.6199 18.3296C39.413 18.5114 39.1887 18.6718 38.9502 18.8083C40.4773 19.6991 42.3953 19.5066 43.7199 18.3296L47.3825 15.0511L61.4865 2.43512C60.7389 1.75748 59.7704 1.3831 58.7669 1.38379Z" fill="#CAD9FC"/>
<path d="M23.2328 29.0505H27.3328C25.0684 29.0505 23.2328 27.1924 23.2328 24.9005V5.53379C23.2328 3.24181 25.0684 1.38379 27.3328 1.38379H23.2328C20.9684 1.38379 19.1328 3.24181 19.1328 5.53379V24.9005C19.1328 27.1924 20.9684 29.0505 23.2328 29.0505Z" fill="white"/>
<path d="M6.83386 81.6168H10.9339C7.9147 81.6168 5.46719 79.1394 5.46719 76.0835V62.7647C5.46758 61.5345 5.87297 60.3396 6.61929 59.3686L22.9605 38.1027C23.9959 36.7555 25.5875 35.9673 27.2737 35.9668H23.1737C21.4875 35.9673 19.8959 36.7555 18.8605 38.1027L2.51929 59.3686C1.77297 60.3396 1.36758 61.5345 1.36719 62.7647V76.0835C1.36719 79.1394 3.8147 81.6168 6.83386 81.6168Z" fill="white"/>
<path d="M11.0547 45.9951L17.7678 37.2635L19.9244 38.9622L13.2113 47.6939L11.0547 45.9951Z" fill="white"/>
<path d="M16.5822 43.3202C16.923 42.8789 16.9672 42.2731 16.6942 41.7859C16.4212 41.2987 15.885 41.0262 15.3359 41.0957C14.7868 41.1652 14.3333 41.5629 14.1872 42.1031C14.0411 42.6434 14.2313 43.2194 14.6689 43.5623C15.2638 44.0283 16.119 43.9201 16.5822 43.3202Z" fill="#428DFF"/>
<path d="M64.2197 37.2529C62.9293 35.5626 60.9358 34.5759 58.8254 34.583H23.1746C21.0642 34.5759 19.0707 35.5626 17.7803 37.2529C17.4676 37.6418 17.3872 38.1715 17.5703 38.6375C17.7534 39.1035 18.1713 39.4326 18.6625 39.4978C19.1537 39.563 19.6413 39.354 19.9369 38.9516C20.7169 37.9441 21.91 37.3538 23.1746 37.3497H58.8254C60.09 37.3538 61.2831 37.9441 62.0631 38.9516L78.4029 60.2176C78.9609 60.9466 79.2646 61.8421 79.2667 62.7643V76.0831C79.2667 78.375 77.431 80.2331 75.1667 80.2331H6.83333C4.56897 80.2331 2.73333 78.375 2.73333 76.0831V62.7643C2.73537 61.8421 3.03909 60.9466 3.59707 60.2176L13.2252 47.6887C13.6657 47.0854 13.5507 46.2367 12.9662 45.7755C12.3816 45.3144 11.5404 45.4089 11.07 45.9886L1.4391 58.5147C0.507302 59.7306 0.00108053 61.2255 0 62.7643V76.0831C0.00451836 79.9011 3.06126 82.9951 6.83333 82.9997H75.1667C78.9387 82.9951 81.9955 79.9011 82 76.0831V62.7643C81.9984 61.2256 81.4922 59.7309 80.5609 58.5147L64.2197 37.2529Z" fill="#428DFF"/>
<path d="M24.0535 40.3929C23.7635 40.1728 23.399 40.0782 23.0402 40.1301C22.6814 40.182 22.3576 40.376 22.1401 40.6696L5.74014 62.8029C5.42954 63.2221 5.37959 63.7829 5.61109 64.2515C5.84259 64.7202 6.31582 65.0162 6.83347 65.0162H24.2776C24.7957 65.0145 25.2696 65.3113 25.4994 65.7812L28.0892 71.0227C28.7799 72.432 30.2018 73.3214 31.756 73.3162H50.2443C51.7985 73.3214 53.2204 72.432 53.911 71.0227L56.5009 65.7812C56.7307 65.3113 57.2046 65.0145 57.7227 65.0162H64.2335C64.9883 65.0162 65.6001 64.3969 65.6001 63.6329C65.6001 62.8689 64.9883 62.2496 64.2335 62.2496H57.7227C56.1685 62.2444 54.7465 63.1338 54.0559 64.5431L51.4661 69.7846C51.2362 70.2545 50.7623 70.5512 50.2443 70.5496H31.756C31.2379 70.5512 30.764 70.2545 30.5342 69.7846L27.9444 64.5431C27.2537 63.1338 25.8318 62.2444 24.2776 62.2496H9.5668L24.3268 42.3296C24.5443 42.036 24.6377 41.6671 24.5864 41.3039C24.5351 40.9407 24.3434 40.613 24.0535 40.3929Z" fill="#428DFF"/>
<path d="M58.0831 42.8829L74.0731 64.4629C74.526 65.0741 75.3826 65.1979 75.9864 64.7395C76.5902 64.2812 76.7126 63.4141 76.2597 62.8029L59.8597 40.6695C59.6016 40.3212 59.1966 40.1162 58.7664 40.1162H31.4331C30.6783 40.1162 30.0664 40.7356 30.0664 41.4995C30.0664 42.2635 30.6783 42.8829 31.4331 42.8829H58.0831Z" fill="#428DFF"/>
<path d="M23.2333 30.4333H58.7666C61.7858 30.4333 64.2333 27.956 64.2333 24.9V5.53333C64.2319 4.01349 63.6103 2.56174 62.5154 1.52167C62.4976 1.50092 62.473 1.494 62.4552 1.47463C61.4532 0.53026 60.1358 0.00360613 58.7666 0H23.2333C21.8662 0.00329157 20.5507 0.528974 19.5501 1.47187C19.531 1.49123 19.5064 1.49815 19.4886 1.5189C18.3915 2.55891 17.7683 4.0119 17.7666 5.53333V24.9C17.7666 27.956 20.2141 30.4333 23.2333 30.4333ZM23.2333 27.6667C23.0374 27.6659 22.8422 27.6436 22.6511 27.6003L30.6966 20.4069C31.0628 20.0798 31.2288 19.5797 31.1319 19.0951C31.0351 18.6105 30.6902 18.215 30.2272 18.0576C29.7642 17.9002 29.2534 18.0048 28.8872 18.3319L20.6366 25.7134C20.5506 25.4508 20.5045 25.1766 20.4999 24.9V5.53333C20.4995 5.16455 20.5725 4.79946 20.7145 4.45987L37.381 19.3667C39.449 21.218 42.5563 21.218 44.6243 19.3667L61.2977 4.46678C61.4346 4.80511 61.5034 5.16773 61.4999 5.53333V24.9C61.4953 25.1766 61.4493 25.4508 61.3633 25.7134L53.11 18.3306C52.5439 17.8248 51.6799 17.8793 51.1802 18.4523C50.6806 19.0253 50.7344 19.8998 51.3005 20.4056L59.3461 27.5989C59.1559 27.6425 58.9616 27.6652 58.7666 27.6667H23.2333ZM58.7666 2.76667C58.8541 2.76667 58.9361 2.78465 59.0222 2.79295L42.8094 17.2917C41.7758 18.2157 40.2241 18.2157 39.1905 17.2917L22.9777 2.79295C23.0638 2.78465 23.1458 2.76667 23.2333 2.76667H58.7666Z" fill="#428DFF"/>
</svg>
