<svg width="73" height="74" viewBox="0 0 73 74" fill="none" xmlns="http://www.w3.org/2000/svg">
<g opacity="0.2">
<path d="M36.5003 51.9187C27.3966 51.9187 20.0164 44.4374 20.0164 35.209H1.17773V63.8542H71.8229V35.209H52.9842C52.9842 44.4374 45.604 51.9187 36.5003 51.9187Z" fill="#57A4FF"/>
<path d="M72.9235 34.7844L63.5042 9.71987C63.33 9.25655 62.8919 8.95117 62.4032 8.95117H10.5968C10.1081 8.95117 9.67002 9.25655 9.49582 9.71987L0.0764632 34.7844C0.0333448 34.9074 0.0103484 35.0361 0.00804876 35.1661C0.00804876 35.1818 0 35.1935 0 35.2092V63.8544C0 64.5135 0.527194 65.0479 1.17742 65.0479H71.8226C72.4728 65.0479 73 64.5135 73 63.8544V35.2092C73 35.1935 72.992 35.1818 72.992 35.1661C72.9896 35.0361 72.9667 34.9074 72.9235 34.7844ZM11.408 11.3383H61.592L70.1139 34.0157H52.9839C52.3336 34.0157 51.8064 34.5501 51.8064 35.2092C51.8064 43.7785 44.9535 50.7254 36.5 50.7254C28.0465 50.7254 21.1935 43.7785 21.1935 35.2092C21.1935 34.5501 20.6664 34.0157 20.0161 34.0157H2.88606L11.408 11.3383ZM70.6452 62.6609H2.35484V36.4028H18.8778C19.4941 45.809 27.2002 53.1189 36.5 53.1189C45.7998 53.1189 53.5059 45.809 54.1222 36.4028H70.6452V62.6609Z" fill="#004FAC"/>
<path d="M8.24222 57.8865H7.0648V54.3059C7.0648 53.6467 6.53761 53.1123 5.88738 53.1123C5.23715 53.1123 4.70996 53.6467 4.70996 54.3059V59.08C4.70996 59.7392 5.23715 60.2736 5.88738 60.2736H8.24222C8.89244 60.2736 9.41964 59.7392 9.41964 59.08C9.41964 58.4209 8.89244 57.8865 8.24222 57.8865Z" fill="#004FAC"/>
<path d="M15.3067 57.8867H12.9518C12.3016 57.8867 11.7744 58.4211 11.7744 59.0803C11.7744 59.7394 12.3016 60.2738 12.9518 60.2738H15.3067C15.9569 60.2738 16.4841 59.7394 16.4841 59.0803C16.4841 58.4211 15.9569 57.8867 15.3067 57.8867Z" fill="#004FAC"/>
</g>
</svg>
